# xmcd
#
# Track frame offsets:
# 150
# 29937
# 45522
# 58017
# 74137
# 88325
# 118417
# 131635
# 154637
# 170065
#
# Disc length: 2765 seconds
#
#
# Revision: 0
# Processed by: cddbd v1.5.2PL0 Copyright (c) Steve Scherf et al.
# Submitted via: Nero 7, 11, 10, 0 
#
DISCID=9e0acb0a
DTITLE=Mikael Santana - In Transit
DYEAR=1998
DGENRE=Blues
TTITLE0=High-Class Automobile
TTITLE1=Sexy Like A Tango
TTITLE2=Hey Big Joe
TTITLE3=Always Gettin' Burned
TTITLE4=Fine Lookin' Woman
TTITLE5=The Moon Is Risin'
TTITLE6=One More Roll
TTITLE7=Bluffin' Mama
TTITLE8=Express Your Desire
TTITLE9=In Transit
EXTD=
EXTT0=High-Class Automobile
EXTT1=Sexy Like A Tango
EXTT2=Hey Big Joe
EXTT3=Always Gettin' Burned
EXTT4=Fine Lookin' Woman
EXTT5=The Moon Is Risin'
EXTT6=One More Roll
EXTT7=Bluffin' Mama
EXTT8=Express Your Desire
EXTT9=In Transit
PLAYORDER=
